<?xml version="1.0" encoding="UTF-8" standalone="no"?><!DOCTYPE svg PUBLIC "-//W3C//DTD SVG 1.1//EN" "http://www.w3.org/Graphics/SVG/1.1/DTD/svg11.dtd"><svg width="100%" height="100%" viewBox="0 0 128 128" version="1.1" xmlns="http://www.w3.org/2000/svg" xmlns:xlink="http://www.w3.org/1999/xlink" xml:space="preserve" xmlns:serif="http://www.serif.com/" style="fill-rule:evenodd;clip-rule:evenodd;stroke-linejoin:round;stroke-miterlimit:1.41421;"><rect id="Artboard1" x="0" y="0" width="128" height="128" style="fill:none;"/><clipPath id="_clip1"><rect id="Artboard11" serif:id="Artboard1" x="0" y="0" width="128" height="128"/></clipPath><g clip-path="url(#_clip1)"><g><path d="M56.291,50.195l-4.634,0c-0.891,0.087 -1.462,0.708 -1.462,1.462l0,1.861c-11.19,-5.349 -23.447,-9.153 -36.43,-11.074l0,-23.679c0,-1.326 0.527,-2.598 1.465,-3.535c0.937,-0.938 2.209,-1.465 3.535,-1.465l8.19,0l29.336,36.43Z" style="fill:#76bcb9;"/><path d="M13.765,42.444c12.967,1.939 25.234,5.737 36.43,11.074l0,16.081c0,0.807 0.655,1.462 1.462,1.462c1.914,0 5.443,0 8.972,0c2.767,0 5.42,-1.099 7.376,-3.056c0.503,-0.503 0.95,-1.052 1.321,-1.622l18.633,23.138c-2.128,2.397 -3.384,5.559 -3.384,9.012c0,0.38 0.015,0.757 0.045,1.129c0.093,1.192 -0.532,2.324 -1.59,2.881c-6.158,3.162 -13.14,4.948 -20.539,4.948c-17.477,0 -35.3,0 -43.726,0c-1.326,0 -2.598,-0.527 -3.535,-1.465c-0.938,-0.938 -1.465,-2.209 -1.465,-3.535l0,-60.047Z" style="fill:#fffae5;"/><circle cx="102.632" cy="102.632" r="13.603" style="fill:#f6cd61;"/><path d="M26.955,13.765l35.536,0c24.853,0 45,20.147 45,45c0,1.241 0,2.484 0,3.726c0,7.399 -1.786,14.381 -4.95,20.538c-0.557,1.057 -1.688,1.681 -2.878,1.589c-0.373,-0.028 -0.75,-0.043 -1.13,-0.043c-4.251,0 -8.06,1.904 -10.574,4.946l-18.633,-23.138c1.128,-1.706 1.735,-3.699 1.735,-5.754c0,-0.001 0,-0.001 0,-0.002c0,-2.767 -1.099,-5.42 -3.056,-7.377c-1.935,-1.935 -4.553,-3.032 -7.376,-3.055l-4.338,0l-29.336,-36.43Z" style="fill:#0e9aa7;"/></g></g></svg>